<?xml version="1.0" encoding="UTF-8" standalone="no"?>
<svg
   xmlns:dc="http://purl.org/dc/elements/1.1/"
   xmlns:cc="http://creativecommons.org/ns#"
   xmlns:rdf="http://www.w3.org/1999/02/22-rdf-syntax-ns#"
   xmlns:svg="http://www.w3.org/2000/svg"
   xmlns="http://www.w3.org/2000/svg"
   xmlns:sodipodi="http://sodipodi.sourceforge.net/DTD/sodipodi-0.dtd"
   xmlns:inkscape="http://www.inkscape.org/namespaces/inkscape"
   fill="#000000"
   height="24"
   viewBox="0 0 24 24"
   width="24"
   version="1.1"
   id="svg6"
   sodipodi:docname="icon-info-outline.svg"
   inkscape:version="0.92.1 unknown">
  <metadata
     id="metadata12">
    <rdf:RDF>
      <cc:Work
         rdf:about="">
        <dc:format>image/svg+xml</dc:format>
        <dc:type
           rdf:resource="http://purl.org/dc/dcmitype/StillImage" />
      </cc:Work>
    </rdf:RDF>
  </metadata>
  <defs
     id="defs10" />
  <sodipodi:namedview
     pagecolor="#ffffff"
     bordercolor="#666666"
     borderopacity="1"
     objecttolerance="10"
     gridtolerance="10"
     guidetolerance="10"
     inkscape:pageopacity="0"
     inkscape:pageshadow="2"
     inkscape:window-width="644"
     inkscape:window-height="480"
     id="namedview8"
     showgrid="false"
     inkscape:zoom="9.8333333"
     inkscape:cx="12"
     inkscape:cy="12"
     inkscape:window-x="0"
     inkscape:window-y="0"
     inkscape:window-maximized="0"
     inkscape:current-layer="svg6" />
  <path
     d="M0 0h24v24H0z"
     fill="none"
     id="path2" />
  <path
     d="m 11.19322,16.033898 h 1.61356 V 11.19322 H 11.19322 Z M 12,3.9322034 c -4.4534237,0 -8.0677966,3.6143729 -8.0677966,8.0677966 0,4.453424 3.6143729,8.067797 8.0677966,8.067797 4.453424,0 8.067797,-3.614373 8.067797,-8.067797 C 20.067797,7.5465763 16.453424,3.9322034 12,3.9322034 Z M 12,18.454237 C 8.4421017,18.454237 5.5457627,15.557898 5.5457627,12 5.5457627,8.4421017 8.4421017,5.5457627 12,5.5457627 c 3.557898,0 6.454237,2.896339 6.454237,6.4542373 0,3.557898 -2.896339,6.454237 -6.454237,6.454237 z M 11.19322,9.579661 h 1.61356 V 7.9661017 h -1.61356 z"
     id="path4"
     inkscape:connector-curvature="0"
     style="stroke-width:0.99999994" />
</svg>
